<svg width="26" height="26" viewBox="0 0 26 26" fill="none" xmlns="http://www.w3.org/2000/svg">
<path fill-rule="evenodd" clip-rule="evenodd" d="M21.75 0.5C23.7437 0.5 25.3793 2.06447 25.4936 4.03001L25.5 4.25V16.75C25.5 18.7437 23.9355 20.3793 21.97 20.4936L21.75 20.5H17.375L14 25C13.7638 25.315 13.3938 25.5 13 25.5C12.6555 25.5 12.3291 25.3584 12.0946 25.1119L12 25L8.625 20.5H4.25C2.25634 20.5 0.620669 18.9355 0.506379 16.97L0.5 16.75V4.25C0.5 2.25634 2.06447 0.620669 4.03001 0.506379L4.25 0.5H21.75ZM21.75 3H4.25C3.61045 3 3.08083 3.48394 3.00843 4.10452L3 4.25V16.75C3 17.3896 3.48394 17.9192 4.10452 17.9916L4.25 18H9.25C9.59453 18 9.92088 18.1416 10.1554 18.3881L10.25 18.5L13 22.1663L15.75 18.5C15.9567 18.2244 16.2658 18.0483 16.6037 18.0086L16.75 18H21.75C22.3896 18 22.9192 17.5161 22.9916 16.8955L23 16.75V4.25C23 3.61045 22.5161 3.08083 21.8955 3.00843L21.75 3ZM19.25 11.75C19.94 11.75 20.5 12.31 20.5 13C20.5 13.6407 20.0171 14.1693 19.3957 14.2416L19.25 14.25H6.75C6.06 14.25 5.5 13.69 5.5 13C5.5 12.3593 5.98286 11.8307 6.60429 11.7584L6.75 11.75H19.25ZM19.25 6.75C19.94 6.75 20.5 7.31 20.5 8C20.5 8.64071 20.0171 9.16934 19.3957 9.24158L19.25 9.25H6.75C6.06 9.25 5.5 8.69 5.5 8C5.5 7.35929 5.98286 6.83066 6.60429 6.75842L6.75 6.75H19.25Z" fill="#FFFDFD" stroke="white"/>
</svg>
