<svg width="30" height="33" viewBox="0 0 30 33" fill="none" xmlns="http://www.w3.org/2000/svg">
<path d="M12.0516 0.159119C18.8643 0.0300607 23.1526 5.80259 23.8212 11.2214C23.9714 12.439 23.8582 13.6962 23.8291 14.9342C23.822 15.2371 23.7431 15.6068 23.5648 15.82C23.3147 16.1191 22.8698 16.55 22.6366 16.4741C22.2858 16.3599 21.9283 15.9021 21.7921 15.5051C21.6522 15.0996 21.7331 14.5853 21.7883 14.1287C22.5672 7.74876 17.4233 1.85012 11.4138 2.24402C6.87152 2.54187 2.91834 6.18072 2.19815 10.9653C1.25521 17.231 5.73102 24.1846 13.0601 23.2078C15.6986 22.857 17.9158 21.66 19.6473 19.4796C20.1573 18.8375 20.8808 18.6344 21.6227 19.0136C22.0839 19.2508 22.5061 19.5663 22.873 19.9477C24.7494 21.913 26.6369 23.8695 28.4358 25.914C29.0503 26.6125 29.5698 27.5016 29.8639 28.4036C30.2939 29.7213 29.6589 31.1804 28.6046 31.8507C27.4966 32.5559 26.1797 32.4183 25.177 31.3778C23.6046 29.7454 22.0701 28.0706 20.5436 26.3889C19.9064 25.6866 19.8139 25.075 20.1793 24.6626C20.602 24.1856 21.3403 24.2369 21.9771 24.9028C23.4332 26.4215 24.8379 27.9947 26.2714 29.5376C26.6355 29.9254 27.018 30.2886 27.5583 29.8949C27.9873 29.5817 28.07 28.8729 27.7421 28.2907C27.581 28.0053 27.3734 27.7404 27.1506 27.5052C25.3094 25.562 23.4513 23.636 21.6199 21.6829C21.3051 21.3466 21.1114 21.3766 20.7913 21.6618C18.7608 23.471 16.5213 24.8379 13.8739 25.3373C8.16747 26.4143 1.11255 22.3576 0.143829 14.8472C-0.971484 6.91661 4.53228 -0.00525172 12.0516 0.159119Z" fill="white"/>
</svg>
