<?xml version="1.0" encoding="utf-8"?>
<svg viewBox="0.201 0.071 21.012 22.222" width="21.012" height="22.222" xmlns="http://www.w3.org/2000/svg">
  <path d="M 12.066 20.081 L 12.065 20.081 C 11.708 20.288 11.293 20.406 10.851 20.406 C 10.409 20.406 9.994 20.288 9.637 20.081 C 9.186 19.82 8.608 19.974 8.347 20.424 C 8.087 20.876 8.24 21.453 8.691 21.714 C 9.326 22.083 10.065 22.293 10.851 22.293 C 11.638 22.293 12.376 22.083 13.012 21.714 C 13.463 21.453 13.616 20.876 13.355 20.424 C 13.095 19.974 12.516 19.82 12.066 20.081 Z" fill="white" stroke="white" stroke-width="0.2"/>
  <path d="M 2.312 12.372 L 2.312 12.373 C 2.057 12.577 1.786 12.794 1.534 12.995 C 1.448 13.064 1.364 13.131 1.284 13.195 C 0.6 13.743 0.201 14.571 0.201 15.449 C 0.201 16.346 0.558 17.207 1.192 17.842 L 1.192 17.843 C 1.827 18.477 2.689 18.834 3.586 18.834 L 17.828 18.834 C 18.726 18.834 19.587 18.477 20.222 17.843 L 20.222 17.842 C 20.856 17.207 21.213 16.346 21.213 15.449 C 21.213 14.571 20.815 13.743 20.131 13.195 C 20.051 13.131 19.967 13.064 19.88 12.995 C 19.629 12.794 19.357 12.577 19.103 12.373 L 19.103 12.372 C 18.659 12.018 18.401 11.481 18.401 10.913 L 18.401 10.908 L 18.401 10.903 L 18.401 10.898 L 18.401 10.893 L 18.401 10.888 L 18.401 10.883 L 18.401 10.879 L 18.401 10.874 L 18.401 10.869 L 18.401 10.864 L 18.401 10.859 L 18.401 10.854 L 18.401 10.849 L 18.401 10.844 L 18.401 10.839 L 18.401 10.834 L 18.401 10.829 L 18.401 10.824 L 18.401 10.819 L 18.401 10.815 L 18.401 10.81 L 18.401 10.805 L 18.401 10.8 L 18.401 10.795 L 18.401 10.79 L 18.401 10.785 L 18.401 10.78 L 18.401 10.775 L 18.401 10.769 L 18.401 10.764 L 18.401 10.759 L 18.401 10.754 L 18.401 10.749 L 18.401 10.744 L 18.401 10.739 L 18.401 10.734 L 18.401 10.729 L 18.401 10.724 L 18.401 10.719 L 18.401 10.714 L 18.401 10.709 L 18.401 10.704 L 18.401 10.698 L 18.401 10.693 L 18.401 10.688 L 18.401 10.683 L 18.401 10.678 L 18.401 10.673 L 18.401 10.668 L 18.401 10.662 L 18.401 10.657 L 18.401 10.652 L 18.401 10.647 L 18.401 10.642 L 18.401 10.636 L 18.401 10.631 L 18.401 10.626 L 18.401 10.621 L 18.401 10.616 L 18.401 10.61 L 18.401 10.605 L 18.401 10.6 L 18.401 10.595 L 18.401 10.589 L 18.401 10.584 L 18.401 10.579 L 18.401 10.574 L 18.401 10.568 L 18.401 10.563 L 18.401 10.558 L 18.401 10.552 L 18.401 10.547 L 18.401 10.542 L 18.401 10.536 L 18.401 10.531 L 18.401 10.526 L 18.401 10.52 L 18.401 10.515 L 18.401 10.51 L 18.401 10.504 L 18.401 10.499 L 18.401 10.494 L 18.401 10.488 L 18.401 10.483 L 18.401 10.478 L 18.401 10.472 L 18.401 10.467 L 18.401 10.461 L 18.401 10.456 L 18.401 10.451 L 18.401 10.445 L 18.401 10.44 L 18.401 10.434 L 18.401 10.429 L 18.401 10.423 L 18.401 10.418 L 18.401 10.413 L 18.401 10.407 L 18.401 10.402 L 18.401 10.396 L 18.401 10.391 L 18.401 10.385 L 18.401 10.38 L 18.401 10.374 L 18.401 10.369 L 18.401 10.363 L 18.401 10.358 L 18.401 10.352 L 18.401 10.347 L 18.401 10.341 L 18.401 10.336 L 18.401 10.33 L 18.401 10.324 L 18.401 10.319 L 18.401 10.313 L 18.401 10.308 L 18.401 10.302 L 18.401 10.297 L 18.401 10.291 L 18.401 10.286 L 18.401 10.28 L 18.401 10.274 L 18.401 10.269 L 18.401 10.263 L 18.401 10.257 L 18.401 10.252 L 18.401 10.246 L 18.401 10.241 L 18.401 10.235 L 18.401 10.229 L 18.401 10.224 L 18.401 10.218 L 18.401 10.212 L 18.401 10.207 L 18.401 10.201 L 18.401 10.195 L 18.401 10.19 L 18.401 10.184 L 18.401 10.178 L 18.401 10.173 L 18.401 10.167 L 18.401 10.161 L 18.401 10.155 L 18.401 10.15 L 18.401 10.144 L 18.401 10.138 L 18.401 10.133 L 18.401 10.127 L 18.401 10.121 L 18.401 10.115 L 18.401 10.11 L 18.401 10.104 L 18.401 10.098 L 18.401 10.092 L 18.401 10.087 L 18.401 10.081 L 18.401 10.075 L 18.401 10.069 L 18.401 10.063 L 18.401 10.058 L 18.401 10.052 L 18.401 10.046 L 18.401 10.04 L 18.401 10.034 L 18.401 10.028 L 18.401 10.023 L 18.401 10.017 L 18.401 10.011 L 18.401 10.005 L 18.401 9.999 L 18.401 9.993 L 18.401 9.987 L 18.401 9.982 L 18.401 9.976 L 18.401 9.97 L 18.401 9.964 L 18.401 9.958 L 18.401 9.952 L 18.401 9.946 L 18.401 9.94 L 18.401 9.934 L 18.401 9.929 L 18.401 9.923 L 18.401 9.917 L 18.401 9.911 L 18.401 9.905 L 18.401 9.899 L 18.401 9.893 L 18.401 9.887 L 18.401 9.881 L 18.401 9.875 L 18.401 9.869 L 18.401 9.863 L 18.401 9.857 L 18.401 9.851 L 18.401 9.845 L 18.401 9.839 L 18.401 9.833 L 18.401 9.827 L 18.401 9.821 L 18.401 9.815 L 18.401 9.809 L 18.401 9.803 L 18.401 9.797 L 18.401 9.791 L 18.401 9.785 L 18.401 9.779 L 18.401 9.773 L 18.401 9.767 L 18.401 9.761 L 18.401 9.755 L 18.401 9.749 L 18.401 9.743 L 18.401 9.737 L 18.401 9.731 L 18.401 9.724 L 18.401 9.718 L 18.401 9.712 L 18.401 9.706 L 18.401 9.7 L 18.401 9.694 L 18.401 9.688 L 18.401 9.682 L 18.401 9.676 L 18.401 9.67 L 18.401 9.663 L 18.401 9.657 L 18.401 9.651 L 18.401 9.645 L 18.401 9.639 L 18.401 9.633 L 18.401 9.627 L 18.401 9.62 L 18.401 9.614 L 18.401 9.608 L 18.401 9.602 L 18.401 9.596 L 18.401 9.59 L 18.401 9.583 L 18.401 9.577 L 18.401 9.571 L 18.401 9.565 L 18.401 9.559 L 18.401 9.552 L 18.401 9.546 L 18.401 9.54 L 18.401 9.534 L 18.401 9.528 L 18.401 9.521 L 18.401 9.515 L 18.401 9.509 L 18.401 9.503 L 18.401 9.496 L 18.401 9.49 L 18.401 9.484 L 18.401 9.478 L 18.401 9.471 L 18.401 9.465 L 18.401 9.459 L 18.401 9.452 L 18.401 9.446 L 18.401 9.44 L 18.401 9.434 L 18.401 9.427 L 18.401 9.421 L 18.401 9.415 L 18.401 9.408 L 18.401 9.402 L 18.401 9.396 L 18.401 9.39 L 18.401 9.383 L 18.401 9.377 L 18.401 9.371 L 18.401 9.364 L 18.401 9.358 L 18.401 9.352 L 18.401 9.345 L 18.401 9.339 L 18.401 9.332 L 18.401 9.326 L 18.401 9.32 L 18.401 9.313 L 18.401 9.307 L 18.401 9.301 L 18.401 9.294 L 18.401 9.288 L 18.401 9.282 L 18.401 9.275 L 18.401 9.269 L 18.401 9.262 L 18.401 9.256 L 18.401 9.25 L 18.401 9.243 L 18.401 9.237 L 18.401 9.23 L 18.401 9.224 L 18.401 9.217 L 18.401 9.211 L 18.401 9.205 L 18.401 9.198 L 18.401 9.192 L 18.401 9.185 L 18.401 9.179 L 18.401 9.172 L 18.401 9.166 L 18.401 9.159 L 18.401 9.153 L 18.401 9.147 L 18.401 9.14 L 18.401 9.134 L 18.401 9.127 L 18.401 9.121 L 18.401 9.114 L 18.401 9.108 L 18.401 9.101 L 18.401 9.095 L 18.401 9.088 L 18.401 9.082 L 18.401 9.075 L 18.401 9.069 L 18.401 9.062 L 18.401 9.056 L 18.401 9.049 L 18.401 9.043 L 18.401 9.036 L 18.401 9.03 L 18.401 9.023 L 18.401 9.016 L 18.401 9.01 L 18.401 9.003 L 18.401 8.997 L 18.401 8.99 L 18.401 8.984 L 18.401 8.977 L 18.401 8.971 L 18.401 8.964 L 18.401 8.957 L 18.401 8.951 L 18.401 8.944 L 18.401 8.938 L 18.401 8.931 L 18.401 8.925 L 18.401 8.918 L 18.401 8.911 L 18.401 8.905 L 18.401 8.898 L 18.401 8.892 L 18.401 8.885 L 18.401 8.878 L 18.401 8.872 L 18.401 8.865 L 18.401 8.859 L 18.401 8.852 L 18.401 8.845 L 18.401 8.839 L 18.401 8.832 L 18.401 8.825 L 18.401 8.819 L 18.401 8.812 L 18.401 8.805 L 18.401 8.799 L 18.401 8.792 L 18.401 8.786 L 18.401 8.779 L 18.401 8.772 L 18.401 8.766 L 18.401 8.759 L 18.401 8.752 L 18.401 8.746 L 18.401 8.739 L 18.401 8.732 L 18.401 8.725 L 18.401 8.719 L 18.401 8.712 L 18.401 8.705 L 18.401 8.699 L 18.401 8.692 L 18.401 8.685 L 18.401 8.679 L 18.401 8.672 L 18.401 8.665 L 18.401 8.659 L 18.401 8.652 L 18.401 8.645 L 18.401 8.638 L 18.401 8.632 L 18.401 8.625 L 18.401 8.618 L 18.401 8.611 L 18.401 8.605 L 18.401 8.598 L 18.401 8.591 L 18.401 8.585 L 18.401 8.578 L 18.401 8.571 L 18.401 8.564 L 18.401 8.558 L 18.401 8.551 L 18.401 8.544 L 18.401 8.537 L 18.401 8.53 L 18.401 8.524 L 18.401 8.517 L 18.401 8.51 L 18.401 8.503 L 18.401 8.497 L 18.401 8.49 L 18.401 8.483 L 18.401 8.476 L 18.401 8.469 L 18.401 8.463 L 18.401 8.456 L 18.401 8.449 L 18.401 8.442 L 18.401 8.435 L 18.401 8.429 L 18.401 8.422 L 18.401 8.415 L 18.401 8.408 L 18.401 8.401 L 18.401 8.395 L 18.401 8.388 L 18.401 8.381 L 18.401 8.374 L 18.401 8.367 L 18.401 8.36 L 18.401 8.354 L 18.401 8.347 L 18.401 8.34 L 18.401 8.333 L 18.401 8.326 L 18.401 8.319 L 18.401 8.313 L 18.401 8.306 L 18.401 8.299 L 18.401 8.292 L 18.401 8.285 L 18.401 8.278 L 18.401 8.271 L 18.401 8.265 L 18.401 8.258 L 18.401 8.251 L 18.401 8.244 L 18.401 8.237 L 18.401 8.23 L 18.401 8.223 L 18.401 8.216 L 18.401 8.21 L 18.401 8.203 L 18.401 8.196 L 18.401 8.189 L 18.401 8.182 L 18.401 8.175 L 18.401 8.168 L 18.401 8.161 L 18.401 8.154 L 18.401 8.148 L 18.401 8.141 L 18.401 8.134 L 18.401 8.127 L 18.401 8.12 L 18.401 8.113 L 18.401 8.106 L 18.401 8.099 L 18.401 8.092 L 18.401 8.085 L 18.401 8.078 L 18.401 8.071 L 18.401 8.065 L 18.401 8.058 L 18.401 8.051 L 18.401 8.044 L 18.401 8.037 L 18.401 8.03 L 18.401 8.023 L 18.401 8.016 L 18.401 8.009 L 18.401 8.002 L 18.401 7.995 L 18.401 7.988 L 18.401 7.981 L 18.401 7.974 L 18.401 7.967 L 18.401 7.96 L 18.401 7.953 L 18.401 7.946 L 18.401 7.94 L 18.401 7.933 L 18.401 7.926 L 18.401 7.919 L 18.401 7.912 L 18.401 7.905 L 18.401 7.898 L 18.401 7.891 L 18.401 7.884 L 18.401 7.877 L 18.401 7.87 L 18.401 7.863 L 18.401 7.856 L 18.401 7.849 L 18.401 7.842 L 18.401 7.835 L 18.401 7.828 L 18.401 7.821 L 18.401 7.814 L 18.401 7.807 L 18.401 7.8 L 18.401 7.793 L 18.401 7.786 L 18.401 7.779 L 18.401 7.772 L 18.401 7.765 C 18.401 3.516 14.956 0.071 10.707 0.071 C 6.458 0.071 3.013 3.516 3.013 7.765 L 3.013 10.913 C 3.013 11.481 2.755 12.018 2.312 12.372 Z M 19.818 13.073 C 19.567 12.872 19.295 12.655 19.04 12.451 L 20.152 17.772 C 20.767 17.155 21.113 16.319 21.113 15.449 C 21.113 14.602 20.729 13.802 20.068 13.273 C 19.988 13.209 19.905 13.142 19.818 13.073 Z M 4.901 7.765 C 4.901 4.558 7.501 1.959 10.707 1.959 C 13.913 1.959 16.513 4.559 16.513 7.765 L 16.513 7.772 L 16.513 7.779 L 16.513 7.786 L 16.513 7.793 L 16.513 7.8 L 16.513 7.807 L 16.513 7.814 L 16.513 7.821 L 16.513 7.828 L 16.513 7.835 L 16.513 7.842 L 16.513 7.849 L 16.513 7.856 L 16.513 7.863 L 16.513 7.87 L 16.513 7.877 L 16.513 7.884 L 16.513 7.891 L 16.513 7.898 L 16.513 7.905 L 16.513 7.912 L 16.513 7.919 L 16.513 7.926 L 16.513 7.933 L 16.513 7.94 L 16.513 7.946 L 16.513 7.953 L 16.513 7.96 L 16.513 7.967 L 16.513 7.974 L 16.513 7.981 L 16.513 7.988 L 16.513 7.995 L 16.513 8.002 L 16.513 8.009 L 16.513 8.016 L 16.513 8.023 L 16.513 8.03 L 16.513 8.037 L 16.513 8.044 L 16.513 8.051 L 16.513 8.058 L 16.513 8.065 L 16.513 8.071 L 16.513 8.078 L 16.513 8.085 L 16.513 8.092 L 16.513 8.099 L 16.513 8.106 L 16.513 8.113 L 16.513 8.12 L 16.513 8.127 L 16.513 8.134 L 16.513 8.141 L 16.513 8.148 L 16.513 8.154 L 16.513 8.161 L 16.513 8.168 L 16.513 8.175 L 16.513 8.182 L 16.513 8.189 L 16.513 8.196 L 16.513 8.203 L 16.513 8.21 L 16.513 8.216 L 16.513 8.223 L 16.513 8.23 L 16.513 8.237 L 16.513 8.244 L 16.513 8.251 L 16.513 8.258 L 16.513 8.265 L 16.513 8.271 L 16.513 8.278 L 16.513 8.285 L 16.513 8.292 L 16.513 8.299 L 16.513 8.306 L 16.513 8.313 L 16.513 8.319 L 16.513 8.326 L 16.513 8.333 L 16.513 8.34 L 16.513 8.347 L 16.513 8.354 L 16.513 8.36 L 16.513 8.367 L 16.513 8.374 L 16.513 8.381 L 16.513 8.388 L 16.513 8.395 L 16.513 8.401 L 16.513 8.408 L 16.513 8.415 L 16.513 8.422 L 16.513 8.429 L 16.513 8.435 L 16.513 8.442 L 16.513 8.449 L 16.513 8.456 L 16.513 8.463 L 16.513 8.469 L 16.513 8.476 L 16.513 8.483 L 16.513 8.49 L 16.513 8.497 L 16.513 8.503 L 16.513 8.51 L 16.513 8.517 L 16.513 8.524 L 16.513 8.53 L 16.513 8.537 L 16.513 8.544 L 16.513 8.551 L 16.513 8.558 L 16.513 8.564 L 16.513 8.571 L 16.513 8.578 L 16.513 8.585 L 16.513 8.591 L 16.513 8.598 L 16.513 8.605 L 16.513 8.611 L 16.513 8.618 L 16.513 8.625 L 16.513 8.632 L 16.513 8.638 L 16.513 8.645 L 16.513 8.652 L 16.513 8.659 L 16.513 8.665 L 16.513 8.672 L 16.513 8.679 L 16.513 8.685 L 16.513 8.692 L 16.513 8.699 L 16.513 8.705 L 16.513 8.712 L 16.513 8.719 L 16.513 8.725 L 16.513 8.732 L 16.513 8.739 L 16.513 8.746 L 16.513 8.752 L 16.513 8.759 L 16.513 8.766 L 16.513 8.772 L 16.513 8.779 L 16.513 8.786 L 16.513 8.792 L 16.513 8.799 L 16.513 8.805 L 16.513 8.812 L 16.513 8.819 L 16.513 8.825 L 16.513 8.832 L 16.513 8.839 L 16.513 8.845 L 16.513 8.852 L 16.513 8.859 L 16.513 8.865 L 16.513 8.872 L 16.513 8.878 L 16.513 8.885 L 16.513 8.892 L 16.513 8.898 L 16.513 8.905 L 16.513 8.911 L 16.513 8.918 L 16.513 8.925 L 16.513 8.931 L 16.513 8.938 L 16.513 8.944 L 16.513 8.951 L 16.513 8.957 L 16.513 8.964 L 16.513 8.971 L 16.513 8.977 L 16.513 8.984 L 16.513 8.99 L 16.513 8.997 L 16.513 9.003 L 16.513 9.01 L 16.513 9.016 L 16.513 9.023 L 16.513 9.03 L 16.513 9.036 L 16.513 9.043 L 16.513 9.049 L 16.513 9.056 L 16.513 9.062 L 16.513 9.069 L 16.513 9.075 L 16.513 9.082 L 16.513 9.088 L 16.513 9.095 L 16.513 9.101 L 16.513 9.108 L 16.513 9.114 L 16.513 9.121 L 16.513 9.127 L 16.513 9.134 L 16.513 9.14 L 16.513 9.147 L 16.513 9.153 L 16.513 9.159 L 16.513 9.166 L 16.513 9.172 L 16.513 9.179 L 16.513 9.185 L 16.513 9.192 L 16.513 9.198 L 16.513 9.205 L 16.513 9.211 L 16.513 9.217 L 16.513 9.224 L 16.513 9.23 L 16.513 9.237 L 16.513 9.243 L 16.513 9.25 L 16.513 9.256 L 16.513 9.262 L 16.513 9.269 L 16.513 9.275 L 16.513 9.282 L 16.513 9.288 L 16.513 9.294 L 16.513 9.301 L 16.513 9.307 L 16.513 9.313 L 16.513 9.32 L 16.513 9.326 L 16.513 9.332 L 16.513 9.339 L 16.513 9.345 L 16.513 9.352 L 16.513 9.358 L 16.513 9.364 L 16.513 9.371 L 16.513 9.377 L 16.513 9.383 L 16.513 9.39 L 16.513 9.396 L 16.513 9.402 L 16.513 9.408 L 16.513 9.415 L 16.513 9.421 L 16.513 9.427 L 16.513 9.434 L 16.513 9.44 L 16.513 9.446 L 16.513 9.452 L 16.513 9.459 L 16.513 9.465 L 16.513 9.471 L 16.513 9.478 L 16.513 9.484 L 16.513 9.49 L 16.513 9.496 L 16.513 9.503 L 16.513 9.509 L 16.513 9.515 L 16.513 9.521 L 16.513 9.528 L 16.513 9.534 L 16.513 9.54 L 16.513 9.546 L 16.513 9.552 L 16.513 9.559 L 16.513 9.565 L 16.513 9.571 L 16.513 9.577 L 16.513 9.583 L 16.513 9.59 L 16.513 9.596 L 16.513 9.602 L 16.513 9.608 L 16.513 9.614 L 16.513 9.62 L 16.513 9.627 L 16.513 9.633 L 16.513 9.639 L 16.513 9.645 L 16.513 9.651 L 16.513 9.657 L 16.513 9.663 L 16.513 9.67 L 16.513 9.676 L 16.513 9.682 L 16.513 9.688 L 16.513 9.694 L 16.513 9.7 L 16.513 9.706 L 16.513 9.712 L 16.513 9.718 L 16.513 9.724 L 16.513 9.731 L 16.513 9.737 L 16.513 9.743 L 16.513 9.749 L 16.513 9.755 L 16.513 9.761 L 16.513 9.767 L 16.513 9.773 L 16.513 9.779 L 16.513 9.785 L 16.513 9.791 L 16.513 9.797 L 16.513 9.803 L 16.513 9.809 L 16.513 9.815 L 16.513 9.821 L 16.513 9.827 L 16.513 9.833 L 16.513 9.839 L 16.513 9.845 L 16.513 9.851 L 16.513 9.857 L 16.513 9.863 L 16.513 9.869 L 16.513 9.875 L 16.513 9.881 L 16.513 9.887 L 16.513 9.893 L 16.513 9.899 L 16.513 9.905 L 16.513 9.911 L 16.513 9.917 L 16.513 9.923 L 16.513 9.929 L 16.513 9.934 L 16.513 9.94 L 16.513 9.946 L 16.513 9.952 L 16.513 9.958 L 16.513 9.964 L 16.513 9.97 L 16.513 9.976 L 16.513 9.982 L 16.513 9.987 L 16.513 9.993 L 16.513 9.999 L 16.513 10.005 L 16.513 10.011 L 16.513 10.017 L 16.513 10.023 L 16.513 10.028 L 16.513 10.034 L 16.513 10.04 L 16.513 10.046 L 16.513 10.052 L 16.513 10.058 L 16.513 10.063 L 16.513 10.069 L 16.513 10.075 L 16.513 10.081 L 16.513 10.087 L 16.513 10.092 L 16.513 10.098 L 16.513 10.104 L 16.513 10.11 L 16.513 10.115 L 16.513 10.121 L 16.513 10.127 L 16.513 10.133 L 16.513 10.138 L 16.513 10.144 L 16.513 10.15 L 16.513 10.155 L 16.513 10.161 L 16.513 10.167 L 16.513 10.173 L 16.513 10.178 L 16.513 10.184 L 16.513 10.19 L 16.513 10.195 L 16.513 10.201 L 16.513 10.207 L 16.513 10.212 L 16.513 10.218 L 16.513 10.224 L 16.513 10.229 L 16.513 10.235 L 16.513 10.241 L 16.513 10.246 L 16.513 10.252 L 16.513 10.257 L 16.513 10.263 L 16.513 10.269 L 16.513 10.274 L 16.513 10.28 L 16.513 10.286 L 16.513 10.291 L 16.513 10.297 L 16.513 10.302 L 16.513 10.308 L 16.513 10.313 L 16.513 10.319 L 16.513 10.324 L 16.513 10.33 L 16.513 10.336 L 16.513 10.341 L 16.513 10.347 L 16.513 10.352 L 16.513 10.358 L 16.513 10.363 L 16.513 10.369 L 16.513 10.374 L 16.513 10.38 L 16.513 10.385 L 16.513 10.391 L 16.513 10.396 L 16.513 10.402 L 16.513 10.407 L 16.513 10.413 L 16.513 10.418 L 16.513 10.423 L 16.513 10.429 L 16.513 10.434 L 16.513 10.44 L 16.513 10.445 L 16.513 10.451 L 16.513 10.456 L 16.513 10.461 L 16.513 10.467 L 16.513 10.472 L 16.513 10.478 L 16.513 10.483 L 16.513 10.488 L 16.513 10.494 L 16.513 10.499 L 16.513 10.504 L 16.513 10.51 L 16.513 10.515 L 16.513 10.52 L 16.513 10.526 L 16.513 10.531 L 16.513 10.536 L 16.513 10.542 L 16.513 10.547 L 16.513 10.552 L 16.513 10.558 L 16.513 10.563 L 16.513 10.568 L 16.513 10.574 L 16.513 10.579 L 16.513 10.584 L 16.513 10.589 L 16.513 10.595 L 16.513 10.6 L 16.513 10.605 L 16.513 10.61 L 16.513 10.616 L 16.513 10.621 L 16.513 10.626 L 16.513 10.631 L 16.513 10.636 L 16.513 10.642 L 16.513 10.647 L 16.513 10.652 L 16.513 10.657 L 16.513 10.662 L 16.513 10.668 L 16.513 10.673 L 16.513 10.678 L 16.513 10.683 L 16.513 10.688 L 16.513 10.693 L 16.513 10.698 L 16.513 10.704 L 16.513 10.709 L 16.513 10.714 L 16.513 10.719 L 16.513 10.724 L 16.513 10.729 L 16.513 10.734 L 16.513 10.739 L 16.513 10.744 L 16.513 10.749 L 16.513 10.754 L 16.513 10.759 L 16.513 10.764 L 16.513 10.769 L 16.513 10.775 L 16.513 10.78 L 16.513 10.785 L 16.513 10.79 L 16.513 10.795 L 16.513 10.8 L 16.513 10.805 L 16.513 10.81 L 16.513 10.815 L 16.513 10.819 L 16.513 10.824 L 16.513 10.829 L 16.513 10.834 L 16.513 10.839 L 16.513 10.844 L 16.513 10.849 L 16.513 10.854 L 16.513 10.859 L 16.513 10.864 L 16.513 10.869 L 16.513 10.874 L 16.513 10.879 L 16.513 10.883 L 16.513 10.888 L 16.513 10.893 L 16.513 10.898 L 16.513 10.903 L 16.513 10.908 L 16.513 10.913 C 16.513 12.054 17.032 13.134 17.923 13.846 C 18.265 14.12 18.638 14.418 18.952 14.668 C 19.188 14.859 19.326 15.145 19.326 15.449 C 19.326 15.846 19.168 16.227 18.887 16.507 C 18.607 16.788 18.226 16.946 17.828 16.946 L 3.586 16.946 C 3.188 16.946 2.808 16.788 2.527 16.507 C 2.247 16.227 2.088 15.846 2.088 15.449 C 2.088 15.145 2.226 14.859 2.463 14.668 C 2.777 14.418 3.149 14.12 3.491 13.846 C 4.382 13.134 4.901 12.054 4.901 10.913 L 4.901 7.765 Z" fill="white" stroke="white" stroke-width="0.2"/>
</svg>