<?xml version="1.0" encoding="utf-8"?>
<svg viewBox="0.237 0.07 10.346 14" width="10.346" height="14" xmlns="http://www.w3.org/2000/svg">
  <path d="M 5.41 0.07 C 2.558 0.07 0.237 2.391 0.237 5.243 C 0.237 8.005 4.953 13.708 5.154 13.95 C 5.217 14.026 5.311 14.07 5.41 14.07 C 5.509 14.07 5.603 14.026 5.666 13.95 C 5.867 13.708 10.583 8.005 10.583 5.243 C 10.583 2.391 8.263 0.07 5.41 0.07 Z M 5.41 13.208 C 4.992 12.685 4.123 11.573 3.263 10.301 C 1.719 8.018 0.903 6.269 0.903 5.243 C 0.903 2.758 2.925 0.737 5.41 0.737 C 7.895 0.737 9.917 2.758 9.917 5.243 C 9.917 6.269 9.101 8.018 7.557 10.301 C 6.697 11.573 5.828 12.685 5.41 13.208 Z" fill="black" stroke="white"/>
  <path d="M 7.079 10.027 C 6.927 9.924 6.72 9.964 6.617 10.117 C 6.167 10.783 5.663 11.481 5.119 12.191 C 5.007 12.337 5.035 12.547 5.181 12.659 C 5.241 12.705 5.313 12.727 5.383 12.727 C 5.483 12.727 5.583 12.682 5.648 12.597 C 6.2 11.876 6.712 11.167 7.169 10.49 C 7.272 10.338 7.232 10.13 7.079 10.027 Z" fill="black" stroke="white"/>
  <path d="M 5.319 2.152 C 3.812 2.152 2.586 3.378 2.586 4.885 C 2.586 6.392 3.812 7.618 5.319 7.618 C 6.826 7.618 8.052 6.392 8.052 4.885 C 8.052 3.378 6.826 2.152 5.319 2.152 Z M 5.319 6.952 C 4.179 6.952 3.252 6.025 3.252 4.885 C 3.252 3.746 4.179 2.818 5.319 2.818 C 6.459 2.818 7.386 3.746 7.386 4.885 C 7.386 6.025 6.459 6.952 5.319 6.952 Z" fill="black" stroke="white"/>
</svg>