<svg width="28" height="28" viewBox="0 0 28 28" fill="none" xmlns="http://www.w3.org/2000/svg">
<path d="M26.5505 1.44945C26.2558 1.15498 25.888 0.944323 25.4849 0.839148C25.0818 0.733974 24.658 0.738079 24.257 0.851043V0.850925L2.42166 7.00957C1.96243 7.13912 1.55369 7.40575 1.25005 7.77382C0.946408 8.14189 0.76234 8.59387 0.722443 9.06935C0.682546 9.54483 0.78872 10.0212 1.02678 10.4347C1.26483 10.8482 1.62343 11.1792 2.05465 11.3835L11.9358 16.0641L16.6165 25.9453C16.8038 26.347 17.1021 26.6867 17.4763 26.9243C17.8505 27.1618 18.2848 27.2874 18.728 27.2861C18.7951 27.2861 18.8626 27.2832 18.9306 27.2775C19.4069 27.2403 19.8602 27.0572 20.2288 26.7531C20.5973 26.4491 20.8633 26.0389 20.9904 25.5783L27.1489 3.74297C27.2618 3.34197 27.2659 2.91815 27.1607 2.51507C27.0555 2.11198 26.8449 1.74417 26.5505 1.44945ZM18.6229 23.6113L14.6869 15.3018L19.2895 10.6993C19.5532 10.4355 19.7013 10.0778 19.7013 9.70488C19.7013 9.33191 19.5532 8.97423 19.2895 8.7105C19.0257 8.44678 18.668 8.29862 18.2951 8.29862C17.9221 8.29862 17.5644 8.44678 17.3007 8.7105L12.6981 13.3131L4.38867 9.37701L24.2149 3.78508L18.6229 23.6113Z" fill="white" stroke="white"/>
</svg>
